#!OML:ASF F:\VICON\USERDATA\INSTALL\rory3\rory3.ASF
:FULLY-SPECIFIED
:DEGREES
3842
root 1.28291 17.9569 1.69134 -2.41003 34.7772 -11.7776
lowerback 2.72519 4.17153 2.27984
upperback -2.84717 5.53732 -4.65496
thorax -3.79679 2.63945 -6.42959
lowerneck -27.4693 -11.978 -8.45261
upperneck -3.607 -13.7917 16.93
head 4.98002 -5.41889 5.03998
rclavicle -1.25234e-014 2.54444e-014
rhumerus 68.4895 -33.7735 -35.1843
rradius 31.2397
rwrist 37.4262
rhand -48.3924 -12.4959
rfingers 7.12502
rthumb -21.0454 -41.3739
lclavicle -1.25234e-014 2.54444e-014
lhumerus -38.2002 7.86308 56.9186
lradius 60.5318
lwrist -2.76305
lhand -21.6523 24.8021
lfingers 7.12502
lthumb 4.74453 -305.271
rfemur -1.4 -8.0923 20.3047
rtibia 27.3612
rfoot -17.0739 -20.2265
rtoes -4.92923
lfemur -14.0538 -7.31205 -7.13993
ltibia 29.1915
lfoot -16.3447 -4.58909
ltoes -14.6498
3843
root 1.28515 17.9603 1.70142 -2.35308 34.888 -11.8323
lowerback 2.65493 4.1989 2.15022
upperback -2.88511 5.56447 -4.76837
thorax -3.79435 2.65544 -6.47332
lowerneck -27.3647 -12.1173 -8.5286
upperneck -3.58433 -13.98 17.0596
head 5.01404 -5.5047 5.06307
rclavicle 1.04958e-013 9.54166e-015
rhumerus 67.946 -33.1876 -33.9044
rradius 31.5832
rwrist 38.5312
rhand -48.869 -12.1139
rfingers 7.12502
rthumb -21.5032 -40.9403
lclavicle 1.04958e-013 9.54166e-015
lhumerus -38.3464 7.81458 57.0714
lradius 60.6481
lwrist -2.53759
lhand -21.8949 25.0567
lfingers 7.12502
lthumb 4.51025 -305.011
rfemur -1.31388 -7.89703 20.4352
rtibia 27.054
rfoot -17.2396 -20.509
rtoes -4.34239
lfemur -14.1852 -7.39218 -7.07117
ltibia 29.2501
lfoot -16.3763 -4.56821
ltoes -14.5413
3844
root 1.2937 17.9645 1.70766 -2.43509 34.9785 -12.0842
lowerback 2.55248 4.16804 2.25283
upperback -2.89472 5.5263 -4.84233
thorax -3.73486 2.63468 -6.59881
lowerneck -27.2983 -12.0822 -8.21903
upperneck -3.63181 -14.0143 16.9219
head 4.95896 -5.53745 4.96902
rclavicle 5.54609e-014 -4.45278e-014
rhumerus 67.2956 -32.5683 -32.0371
rradius 31.8953
rwrist 38.9683
rhand -49.2848 -11.7922
rfingers 7.12502
rthumb -21.9025 -40.5725
lclavicle 5.54609e-014 -4.45278e-014
lhumerus -38.5088 7.97815 57.1295
lradius 60.7067
lwrist -2.47561
lhand -22.0109 25.0531
lfingers 7.12502
lthumb 4.39823 -305.013
rfemur -1.23866 -7.86804 20.6717
rtibia 26.8572
rfoot -17.2665 -20.6057
rtoes -4.03275
lfemur -14.2281 -7.47928 -6.84718
ltibia 29.2101
lfoot -16.375 -4.58287
ltoes -14.1585
3845
root 1.30522 17.9663 1.70674 -2.64264 35.0651 -12.3082
lowerback 2.69553 4.14668 2.43702
upperback -2.88719 5.50553 -4.89493
thorax -3.78899 2.61692 -6.77047
lowerneck -27.2263 -12.1121 -8.1881
upperneck -3.65645 -14.0665 16.923
head 4.94556 -5.56726 4.95798
rclavicle -6.34123e-014 0
rhumerus 66.3674 -31.9847 -29.7584
rradius 32.368
rwrist 39.2227
rhand -49.8495 -11.3657
rfingers 7.12502
rthumb -22.4447 -40.0816
lclavicle -6.34123e-014 0
lhumerus -38.6184 8.26057 57.2472
lradius 60.6193
lwrist -2.86412
lhand -21.9935 24.7622
lfingers 7.12502
lthumb 4.41509 -305.304
rfemur -1.03881 -7.93154 20.8159
rtibia 26.69
rfoot -17.2804 -20.586
rtoes -3.93011
lfemur -14.1067 -7.50473 -6.70364
ltibia 29.137
lfoot -16.3737 -4.6287
ltoes -14.3503
3846
root 1.30708 17.9735 1.71514 -2.2699 35.1079 -11.842
lowerback 2.63574 4.1941 1.86045
upperback -2.92406 5.53629 -5.09175
thorax -3.82357 2.64584 -6.65188
lowerneck -27.159 -12.2253 -8.43575
upperneck -3.53172 -14.1914 17.1563
head 5.03275 -5.60995 5.04745
rclavicle -9.70069e-014 5.40694e-014
rhumerus 66.386 -31.2729 -29.1889
rradius 32.4375
rwrist 41.0789
rhand -49.9728 -11.742
rfingers 7.12502
rthumb -22.563 -40.4435
lclavicle -9.70069e-014 5.40694e-014
lhumerus -38.6434 8.43631 57.3377
lradius 60.5223
lwrist -3.2136
lhand -21.741 24.5454
lfingers 7.12502
lthumb 4.65891 -305.526
rfemur -1.01088 -7.77659 20.4556
rtibia 26.418
rfoot -17.3834 -20.7751
rtoes -3.62723
lfemur -14.212 -7.51146 -7.11887
ltibia 29.1521
lfoot -16.378 -4.62837
ltoes -14.1146
3847
root 1.30718 17.9778 1.72075 -2.36197 35.2176 -12.0953
lowerback 2.6535 4.19451 1.91689
upperback -2.94255 5.53802 -5.13708
thorax -3.84329 2.64384 -6.73468
lowerneck -27.0167 -12.2832 -8.50259
upperneck -3.58332 -14.2667 17.2986
head 5.02665 -5.64561 5.0937
rclavicle 3.53837e-014 -4.45278e-014
rhumerus 65.1747 -30.7563 -26.3278
rradius 32.7607
rwrist 41.2426
rhand -50.4108 -11.8717
rfingers 7.12502
rthumb -22.9834 -40.5215
lclavicle 3.53837e-014 -4.45278e-014
lhumerus -38.7233 8.38649 57.4725
lradius 60.6122
lwrist -3.00354
lhand -21.6169 24.4478
lfingers 7.12502
lthumb 4.77865 -305.626
rfemur -0.927946 -7.70334 20.7387
rtibia 26.15
rfoot -17.3653 -21.0469
rtoes -3.64833
lfemur -14.3412 -7.3678 -6.86813
ltibia 29.2064
lfoot -16.3937 -4.85549
ltoes -14.2141
3848
root 1.31313 17.9757 1.71524 -3.05633 35.3404 -13.0879
lowerback 2.91203 4.12365 2.80703
upperback -2.90439 5.49048 -5.0239
thorax -3.88626 2.59391 -7.13741
lowerneck -27.0216 -12.3274 -8.63586
upperneck -3.56801 -14.3081 17.5126
head 5.07029 -5.6493 5.17402
rclavicle -7.35503e-015 6.36111e-014
rhumerus 64.5421 -30.1302 -24.2799
rradius 32.8611
rwrist 42.2193
rhand -50.9721 -12.0057
rfingers 7.12502
rthumb -23.5219 -40.5875
lclavicle -7.35503e-015 6.36111e-014
lhumerus -38.8029 8.5144 57.6731
lradius 60.7043
lwrist -2.8078
lhand -21.8462 24.3577
lfingers 7.12502
lthumb 4.55724 -305.711
rfemur -0.703255 -7.90029 21.5671
rtibia 26.0077
rfoot -17.3808 -21.0536
rtoes -3.67337
lfemur -14.2787 -7.1975 -5.99264
ltibia 29.2061
lfoot -16.4116 -5.19975
ltoes -14.4235
3849
root 1.31583 17.9795 1.71709 -2.98705 35.396 -13.1644
lowerback 2.87223 4.12526 2.7916
upperback -2.94587 5.4889 -5.11637
thorax -3.90011 2.5917 -7.22605
lowerneck -27.054 -12.3918 -8.75283
upperneck -3.42838 -14.3981 17.7004
head 5.15911 -5.67269 5.23276
rclavicle 2.09917e-013 2.22639e-014
rhumerus 63.6948 -29.5022 -22.2715
rradius 33.2528
rwrist 42.9011
rhand -50.9011 -11.4678
rfingers 7.12502
rthumb -23.4537 -40.0583
lclavicle 2.09917e-013 2.22639e-014
lhumerus -38.7166 8.7074 57.8443
lradius 60.6262
lwrist -2.8842
lhand -21.8373 24.4595
lfingers 7.12502
lthumb 4.56585 -305.61
rfemur -0.715323 -7.90877 21.6518
rtibia 25.8241
rfoot -17.4337 -21.0527
rtoes -3.24448
lfemur -14.4334 -7.226 -5.90137
ltibia 29.2657
lfoot -16.3926 -5.29129
ltoes -13.8766
3850
root 1.31575 17.9855 1.72892 -2.37937 35.3706 -12.5374
lowerback 2.58483 4.17782 2.03868
upperback -3.01894 5.51543 -5.3624
thorax -3.85494 2.6259 -7.04043
lowerneck -26.9692 -12.3987 -8.55152
upperneck -3.37563 -14.4777 17.6047
head 5.1496 -5.72192 5.15928
rclavicle 1.94809e-014 2.22639e-014
rhumerus 63.0228 -28.8074 -20.7735
rradius 33.673
rwrist 43.6716
rhand -50.819 -10.6439
rfingers 7.12502
rthumb -23.375 -39.2445
lclavicle 1.94809e-014 2.22639e-014
lhumerus -38.5335 8.89023 57.9476
lradius 60.4032
lwrist -3.22687
lhand -21.6708 24.4824
lfingers 7.12502
lthumb 4.72669 -305.59
rfemur -0.876518 -7.70707 21.1649
rtibia 25.6297
rfoot -17.426 -21.1656
rtoes -3.30976
lfemur -14.6856 -7.2184 -6.44149
ltibia 29.3349
lfoot -16.4129 -5.10943
ltoes -14.0206
3851
root 1.31893 17.9858 1.73348 -2.47598 35.3821 -12.7501
lowerback 2.62754 4.18152 2.1229
upperback -3.09497 5.52106 -5.42745
thorax -3.94423 2.62157 -7.1668
lowerneck -26.8106 -12.3745 -8.39909
upperneck -3.27275 -14.5212 17.5601
head 5.1511 -5.75339 5.11614
rclavicle -2.18663e-014 9.54166e-014
rhumerus 62.971 -27.9752 -20.1164
rradius 33.7926
rwrist 45.1682
rhand -51.091 -10.0012
rfingers 7.12502
rthumb -23.6359 -38.5684
lclavicle -2.18663e-014 9.54166e-014
lhumerus -38.5667 8.96217 58.0628
lradius 60.3717
lwrist -3.26664
lhand -21.8741 24.6124
lfingers 7.12502
lthumb 4.53036 -305.456
rfemur -0.920926 -7.66142 21.37
rtibia 25.6905
rfoot -17.4557 -21.1867
rtoes -3.21997
lfemur -14.6728 -7.13762 -6.25313
ltibia 29.2263
lfoot -16.3274 -5.14591
ltoes -14.3708
